<svg width="341px" height="411px" viewBox="0 0 341 411" version="1.1" xmlns="http://www.w3.org/2000/svg" xmlns:xlink="http://www.w3.org/1999/xlink">
    <g id="Page-1" stroke="none" stroke-width="1" fill="none" fill-rule="evenodd">
        <g id="SMUS Crest" transform="translate(-1.000000, 0.000000)">
            <g id="Group" transform="translate(0.996000, 0.148000)">
                <path d="M338.412,0 L0,0 L0,206.303 C0,342.51 156.885,404.556 163.564,407.13 C163.564,407.13 163.491,407.025 163.482,407.01 C164.259,407.396 165.529,407.889 167.674,408.716 L172.511,410.579 L181.404,407.07 C187.893,404.527 340.412,343.161 340.412,205.74 L340.412,0 L338.412,0" id="Fill-1" fill="#FFFFFE"></path>
                <path d="M335.49,2 L2,2 L2,206.303 C2,341.12 157.656,402.709 164.283,405.264 C164.283,405.268 172.502,408.432 172.502,408.432 L180.67,405.209 C187.107,402.686 338.412,341.787 338.412,205.74 L338.412,2 L335.49,2" id="Fill-2" fill="#FBD58D"></path>
                <path d="M322.334,15.133 L15.149,15.133 L15.149,206.303 C15.149,332.33 162.692,390.596 168.973,393.018 C168.986,393.022 172.432,394.327 172.432,394.327 L175.869,392.979 C177.354,392.401 325.256,333.495 325.256,205.74 L325.256,15.133 L322.334,15.133" id="Fill-3" fill="#FFFFFE"></path>
                <path d="M24.623,206.303 L315.772,206.303 C315.772,206.303 317.537,270.612 269.115,316.991 C220.694,363.354 172.397,384.166 172.397,384.166 C172.397,384.166 94.279,348.182 68.834,313.295 C43.381,278.412 27.233,259.381 24.623,206.303" id="Fill-4" fill="#1A1919"></path>
                <polygon id="Fill-5" fill="#DC3E33" points="24.701 95.755 168.959 95.755 168.959 24.943 24.701 24.943"></polygon>
                <polyline id="Fill-6" fill="#005C9C" points="169.662 171.807 241.35 78.229 314.678 169.65 315.24 205.74 241.35 113.807 169.662 206.303 169.662 171.807"></polyline>
                <polyline id="Fill-7" fill="#4A4D4D" points="242.428 141.033 248.975 161.162 270.131 161.162 253.006 173.623 259.569 193.736 242.428 181.287 225.303 193.736 231.842 173.623 214.717 161.162 235.889 161.162 242.428 141.033"></polyline>
                <polyline id="Fill-8" fill="#4A4D4D" points="206.326 34.33 212.857 54.467 234.037 54.467 216.897 66.904 223.436 87.021 206.326 74.6 189.186 87.021 195.725 66.904 178.6 54.467 199.779 54.467 206.326 34.33"></polyline>
                <polyline id="Fill-9" fill="#4A4D4D" points="279.639 34.33 286.178 54.467 307.35 54.467 290.225 66.904 296.779 87.021 279.639 74.6 262.514 87.021 269.053 66.904 251.928 54.467 273.1 54.467 279.639 34.33"></polyline>
                <path d="M104.74,236.881 C101.428,234.881 97.123,233.662 92.787,233.662 C86.147,233.662 81.834,238.202 81.834,244.139 C81.834,248.67 83.631,251.467 93.709,257.295 C104.537,263.526 108.162,269.674 108.162,277.717 C108.162,288.862 101.233,297.6 87.756,297.6 C82.162,297.6 76.819,296.405 73.092,294.588 L73.092,285.459 C77.1,287.842 82.326,289.963 86.459,289.963 C94.389,289.963 98.912,284.635 98.912,278.92 C98.912,273.475 97.506,270.366 88.069,264.627 C75.412,256.987 72.584,252.666 72.584,243.624 C72.584,232.072 81.436,226.041 92.1,226.041 C96.725,226.041 101.639,227.045 104.74,228.35 L104.74,236.881" id="Fill-10" fill="#F3B229"></path>
                <polyline id="Fill-11" fill="#F3B229" points="115.506 226.748 129.186 226.748 146.772 282.537 146.982 282.537 164.944 226.748 178.24 226.748 178.24 296.912 169.787 296.912 169.787 236.385 169.6 236.385 149.662 296.912 143.248 296.912 124.131 236.385 123.951 236.385 123.951 296.912 115.506 296.912 115.506 226.748"></polyline>
                <path d="M232.842,271.057 C232.842,278.006 232.404,281.827 230.006,286.745 C227.069,292.584 220.959,297.6 210.803,297.6 C200.647,297.6 194.514,292.584 191.615,286.745 C189.186,281.827 188.803,278.006 188.803,271.057 L188.803,226.748 L197.615,226.748 L197.615,272.381 C197.615,283.33 202.436,290.362 210.803,290.362 C219.147,290.362 223.975,283.33 223.975,272.381 L223.975,226.748 L232.842,226.748 L232.842,271.057" id="Fill-12" fill="#F3B229"></path>
                <path d="M272.326,236.881 C268.99,234.881 264.662,233.662 260.35,233.662 C253.74,233.662 249.412,238.202 249.412,244.139 C249.412,248.67 251.201,251.467 261.256,257.295 C272.131,263.526 275.725,269.674 275.725,277.717 C275.725,288.862 268.787,297.6 255.326,297.6 C249.694,297.6 244.381,296.405 240.647,294.588 L240.647,285.459 C244.662,287.842 249.904,289.963 254.029,289.963 C261.944,289.963 266.49,284.635 266.49,278.92 C266.49,273.475 265.069,270.366 255.631,264.627 C242.975,256.987 240.131,252.666 240.131,243.624 C240.131,232.072 248.99,226.041 259.678,226.041 C264.256,226.041 269.194,227.045 272.326,228.35 L272.326,236.881" id="Fill-13" fill="#F3B229"></path>
                <path d="M76.819,75.107 C78.662,74.318 79.24,73.615 79.24,73.615 C79.24,73.615 74.225,72.193 72.162,71.076 C70.178,69.982 67.662,68.564 67.662,68.564 C67.662,68.564 59.381,69.178 51.506,67.955 C43.928,66.791 41.318,62.185 41.943,58.482 C42.342,56.045 45.147,55.361 45.147,55.361 C45.147,55.361 41.943,58.283 43.959,61.709 C45.975,65.131 49.912,66.654 56.943,66.963 C63.99,67.256 78.662,66.15 78.662,66.15 C78.662,66.15 70.967,63.209 69.857,62.717 C68.772,62.225 67.045,61.201 67.045,61.201 L69.568,58.174 C69.568,58.174 63.334,59.185 59.381,57.963 C55.436,56.783 50.115,53.635 50.115,53.635 C50.115,53.635 50.115,46.084 47.397,43.654 C44.678,41.248 41.826,38.912 38.022,40.932 C36.108,41.967 35.912,43.053 35.084,43.857 C34.272,44.67 33.553,45.275 33.553,45.275 C33.553,45.275 35.178,46.666 35.678,47.396 C36.178,48.103 37.209,49.205 37.014,52.935 C36.803,56.662 36.467,60.81 38.92,65.326 C41.334,69.881 43.256,71.256 46.982,72.693 C50.701,74.104 52.631,73.299 52.631,75.42 C52.631,77.529 52.733,80.56 52.022,81.678 C51.303,82.791 49.803,84.279 49.803,84.279 C49.803,84.279 50.022,85.713 52.022,84.975 C54.053,84.279 55.654,82.791 55.654,82.791 C55.654,82.791 56.381,83.9 58.068,84.592 C59.772,85.322 61.912,84.783 61.912,84.783 C61.912,84.783 59.693,82.572 58.975,80.154 C58.272,77.748 58.49,75.717 58.568,75.33 C58.67,74.912 59.272,74.416 60.787,74.799 C62.318,75.225 64.818,75.107 68.662,78.131 C72.49,81.166 75.631,83.682 75.631,83.682 C75.631,83.682 75.631,80.56 74.912,79.256 C74.225,77.943 72.584,75.525 72.584,75.525 C72.584,75.525 75.022,75.928 76.819,75.107 Z M41.42,44.373 C41.42,44.373 41.24,45.881 40.037,45.881 C38.818,45.881 38.6,44.67 38.6,44.67 L36.803,43.857 L39.022,43.56 C39.022,43.56 40.318,42.756 41.334,43.56 C42.342,44.373 41.42,44.373 41.42,44.373 L41.42,44.373 Z" id="Fill-14" fill="#FFFFFE"></path>
                <path d="M44.74,73.412 C44.74,73.412 44.74,75.861 44.147,77.529 C43.451,79.56 42.131,81.572 42.131,81.572 C42.131,81.572 44.084,81.619 45.475,81.06 C46.982,80.459 47.068,79.955 47.068,79.955 C47.068,79.955 48.287,81.271 49.506,81.459 C50.701,81.678 51.022,81.271 51.022,81.271 C51.022,81.271 49.912,79.463 49.803,77.838 C49.717,76.225 49.717,75.225 49.717,75.225 L44.74,73.412" id="Fill-15" fill="#FFFFFE"></path>
                <path d="M161.256,75.107 C163.069,74.318 163.67,73.615 163.67,73.615 C163.67,73.615 158.631,72.193 156.623,71.076 C154.584,69.982 152.084,68.564 152.084,68.564 C152.084,68.564 143.803,69.178 135.944,67.955 C128.35,66.791 125.74,62.185 126.35,58.482 C126.772,56.045 129.576,55.361 129.576,55.361 C129.576,55.361 126.35,58.283 128.365,61.709 C130.381,65.131 134.318,66.654 141.381,66.963 C148.444,67.256 163.069,66.15 163.069,66.15 C163.069,66.15 155.412,63.209 154.279,62.717 C153.178,62.225 151.459,61.201 151.459,61.201 L153.982,58.174 C153.982,58.174 147.732,59.185 143.803,57.963 C139.865,56.783 134.506,53.635 134.506,53.635 C134.506,53.635 134.506,46.084 131.811,43.654 C129.084,41.248 126.279,38.912 122.444,40.932 C120.514,41.967 120.326,43.053 119.506,43.857 C118.694,44.67 117.99,45.275 117.99,45.275 C117.99,45.275 119.584,46.666 120.115,47.396 C120.615,48.103 121.631,49.205 121.444,52.935 C121.232,56.662 120.928,60.81 123.334,65.326 C125.74,69.881 127.662,71.256 131.404,72.693 C135.147,74.104 137.053,73.299 137.053,75.42 C137.053,77.529 137.162,80.56 136.475,81.678 C135.74,82.791 134.225,84.279 134.225,84.279 C134.225,84.279 134.459,85.713 136.475,84.975 C138.459,84.279 140.061,82.791 140.061,82.791 C140.061,82.791 140.756,83.9 142.475,84.592 C144.225,85.322 146.334,84.783 146.334,84.783 C146.334,84.783 144.092,82.572 143.412,80.154 C142.709,77.748 142.904,75.717 143.006,75.33 C143.1,74.912 143.725,74.416 145.193,74.799 C146.717,75.225 149.248,75.107 153.092,78.131 C156.897,81.166 160.029,83.682 160.029,83.682 C160.029,83.682 160.029,80.56 159.35,79.256 C158.631,77.943 157.037,75.525 157.037,75.525 C157.037,75.525 159.443,75.928 161.256,75.107 Z M125.865,44.373 C125.865,44.373 125.662,45.881 124.444,45.881 C123.256,45.881 123.037,44.67 123.037,44.67 L121.232,43.857 L123.412,43.56 C123.412,43.56 124.74,42.756 125.74,43.56 C126.772,44.373 125.865,44.373 125.865,44.373 L125.865,44.373 Z" id="Fill-16" fill="#FFFFFE"></path>
                <path d="M129.186,73.412 C129.186,73.412 129.162,75.861 128.569,77.529 C127.873,79.56 126.569,81.572 126.569,81.572 C126.569,81.572 128.506,81.619 129.897,81.06 C131.404,80.459 131.506,79.955 131.506,79.955 C131.506,79.955 132.709,81.271 133.912,81.459 C135.147,81.678 135.428,81.271 135.428,81.271 C135.428,81.271 134.318,79.463 134.225,77.838 C134.115,76.225 134.115,75.225 134.115,75.225 L129.186,73.412" id="Fill-17" fill="#FFFFFE"></path>
                <path d="M117.693,57.494 L113.889,57.494 C112.772,50.756 107.49,45.451 100.709,44.303 L100.709,40.529 C100.709,40.369 100.615,40.283 100.459,40.283 L95.584,40.283 C95.451,40.283 95.334,40.369 95.334,40.529 L95.334,44.303 C88.6,45.451 83.287,50.756 82.162,57.494 L78.35,57.494 C78.225,57.494 78.131,57.607 78.131,57.74 L78.131,62.639 C78.131,62.783 78.225,62.877 78.35,62.877 L82.162,62.877 C83.287,69.619 88.6,74.912 95.334,76.049 L95.334,79.846 C95.334,79.963 95.451,80.076 95.584,80.076 L100.459,80.076 C100.615,80.076 100.709,79.963 100.709,79.846 L100.709,76.049 C107.49,74.912 112.772,69.619 113.889,62.877 L117.693,62.877 C117.803,62.877 117.928,62.783 117.928,62.639 L117.928,57.74 C117.928,57.607 117.803,57.494 117.693,57.494 Z M109.186,57.494 L100.709,57.494 L100.709,49.021 C104.912,50.025 108.193,53.279 109.186,57.494 Z M95.334,49.021 L95.334,57.494 L86.85,57.494 C87.834,53.279 91.147,50.025 95.334,49.021 Z M86.85,62.877 L95.334,62.877 L95.334,71.365 C91.147,70.35 87.834,67.068 86.85,62.877 Z M100.709,71.365 L100.709,62.877 L109.186,62.877 C108.193,67.068 104.912,70.35 100.709,71.365 L100.709,71.365 Z" id="Fill-18" fill="#FFFFFE"></path>
                <path d="M155.709,122.568 C155.592,121.017 155.819,119.982 154.428,119.6 C153.006,119.221 151.459,119.103 151.459,119.103 C151.459,119.103 151.6,116.889 150.178,116.635 C148.764,116.373 148.115,115.885 148.115,115.885 C148.115,115.885 148.115,113.685 146.717,113.439 C145.287,113.193 144.397,113.037 144.397,113.037 C144.397,113.037 144.662,110.998 144.006,110.455 C143.381,109.967 142.475,109.842 138.365,109.842 C134.256,109.842 120.49,110.6 110.483,112.299 C100.444,113.943 95.693,118.068 95.693,118.068 C95.693,118.068 91.959,114.334 81.029,112.15 C73.959,110.752 58.178,109.842 54.318,109.693 C50.459,109.588 51.35,111.9 51.35,111.9 C51.35,111.9 50.318,112.025 48.412,112.275 C46.467,112.521 46.982,114.705 46.982,114.705 C46.982,114.705 46.068,114.58 44.412,114.967 C42.74,115.35 42.881,117.412 42.881,117.412 C42.881,117.412 41.709,117.412 39.803,118.205 C37.865,118.963 38.006,119.873 38.115,124.869 C38.272,129.896 38.35,138.74 38.756,154.435 C39.139,170.103 40.303,183.865 40.943,189.111 C41.592,194.381 45.568,192.975 45.568,192.975 C45.568,192.975 52.373,192.213 62.162,190.682 C71.951,189.135 84.897,188.232 84.897,188.232 C84.897,188.232 84.514,191.42 89.006,193.506 C93.522,195.568 98.615,194.787 103.654,193.506 C108.678,192.213 108.912,188.232 108.912,188.232 C108.912,188.232 116.131,188.361 123.443,188.74 C130.787,189.111 148.256,190.299 151.334,190.412 C154.428,190.545 154.834,188.74 155.318,186.443 C155.819,184.111 156.092,167.033 156.342,151.217 C156.623,135.42 155.819,124.088 155.709,122.568 Z M68.194,113.307 C77.037,113.83 84.131,115.35 89.123,117.178 C94.115,118.963 94.279,121.412 94.279,121.412 C94.279,121.412 94.279,128.717 94.42,136.818 C94.529,144.912 94.936,177.568 94.936,177.568 C94.936,177.568 83.748,174.736 76.303,174.353 C68.834,173.959 56.256,174.877 56.256,174.877 C55.857,174.353 55.857,150.838 55.857,139.267 C55.857,127.697 55.725,112.658 55.725,112.658 C55.725,112.658 59.295,112.81 68.194,113.307 Z M86.944,182.971 C86.944,182.971 75.256,183.482 68.459,184.111 C61.654,184.752 56.881,184.478 53.787,185.021 C50.701,185.521 48.272,186.81 47.092,184.631 C45.975,182.455 45.717,178.967 45.834,172.303 C45.975,165.6 46.475,152.385 46.209,144.662 C45.975,136.932 45.568,122.81 45.568,122.81 C45.568,122.81 47.092,124.74 47.256,129.498 C47.389,134.256 46.982,138.9 48.412,138.771 C49.818,138.635 49.178,131.443 49.561,127.041 C49.943,122.662 49.287,118.205 50.6,116.506 C51.865,114.85 52.256,115.236 52.256,115.236 C52.256,115.236 52.787,117.666 52.662,121.779 C52.522,125.904 52.787,142.877 52.662,152.111 C52.522,161.357 52.522,173.33 51.998,173.705 C51.49,174.088 50.318,174.088 50.318,170.373 C50.318,166.631 50.193,158.416 50.193,158.416 C50.193,158.416 49.428,157.236 48.928,163.154 C48.412,169.076 48.272,177.435 49.287,180.006 C50.318,182.568 50.975,182.713 56.256,182.443 C61.506,182.193 73.209,181.924 78.725,181.81 C84.272,181.67 86.186,181.81 86.944,182.713 C87.709,183.611 86.944,182.971 86.944,182.971 Z M72.311,179.115 C62.537,178.467 54.053,179.334 54.053,179.334 C54.053,179.334 64.061,176.549 74.225,177.17 C84.365,177.842 88.381,179.748 89.24,180.514 C89.24,180.514 82.069,179.748 72.311,179.115 Z M97.1,189.135 C93.897,189.135 92.49,188.361 92.1,187.725 C92.1,187.725 93.115,182.713 96.615,182.713 C100.069,182.713 101.99,186.685 101.732,187.33 C101.475,187.971 100.334,189.135 97.1,189.135 Z M97.49,177.322 C97.49,177.322 97.1,144.912 97.24,136.818 C97.381,128.717 97.1,120.767 97.1,120.767 C97.1,120.767 99.818,118.435 104.803,116.635 C109.811,114.85 116.881,113.307 125.772,112.795 C134.615,112.275 138.232,112.15 138.232,112.15 C138.232,112.15 138.115,127.205 138.115,138.74 C138.115,150.318 138.756,174.353 138.365,174.877 C138.365,174.877 124.99,173.959 117.537,174.353 C110.076,174.736 97.49,177.322 97.49,177.322 Z M105.334,180.514 C106.232,179.748 111.756,178.205 121.889,177.568 C132.053,176.932 140.404,178.584 140.404,178.584 C140.404,178.584 131.928,178.467 122.154,179.115 C112.397,179.748 105.334,180.514 105.334,180.514 Z M150.061,145.045 C149.772,152.756 149.272,163.42 149.412,170.103 C149.553,176.787 149.772,180.006 148.647,182.193 C147.483,184.361 144.397,183.611 141.303,183.084 C138.232,182.568 134.889,183.33 128.076,182.713 C121.272,182.049 117.022,182.713 117.022,182.713 C117.022,182.713 115.857,182.838 116.662,181.924 C117.412,181.021 120.631,181.021 126.154,181.154 C131.678,181.287 133.99,180.889 139.24,181.154 C144.529,181.428 145.162,181.545 145.819,180.006 C146.881,177.435 146.459,169.701 145.951,163.814 C145.397,157.9 145.287,155.709 145.287,155.709 C145.287,155.709 144.131,160.209 144.131,163.939 C144.131,167.678 142.983,167.658 142.475,167.295 C141.959,166.896 141.818,160.068 141.709,150.838 C141.584,141.568 141.459,129.896 141.303,125.764 C141.186,121.646 141.709,119.221 141.709,119.221 C141.709,119.221 142.076,118.818 143.381,120.49 C144.662,122.158 144.006,122.158 144.397,126.553 C144.772,130.912 143.74,139.49 145.045,138.9 C146.717,138.111 146.803,134.685 147.225,132.85 C148.256,128.334 150.553,129.896 150.553,129.896 C150.553,129.896 150.319,137.35 150.061,145.045 L150.061,145.045 Z" id="Fill-19" fill="#DC3E33"></path>
                <path d="M315.772,21.695 L21.703,21.695 L21.703,206.303 C21.703,256.674 47.634,303.899 96.694,342.872 C133.56,372.161 170.974,386.747 171.347,386.891 L172.408,387.3 L173.467,386.883 C173.83,386.74 210.151,372.248 245.935,342.93 C293.532,303.932 318.691,256.493 318.691,205.74 L318.691,21.695 L315.772,21.695 Z M312.852,27.535 C312.852,33.188 312.852,205.74 312.852,205.74 C312.852,232.984 305.47,259.137 290.91,283.474 C279.212,303.03 262.877,321.479 242.357,338.311 C210.501,364.443 178.319,378.529 172.383,381.012 C166.335,378.543 133.101,364.367 100.206,338.205 C79.05,321.378 62.209,302.975 50.149,283.503 C35.149,259.284 27.543,233.309 27.543,206.303 C27.543,206.303 27.543,33.189 27.543,27.535 C33.209,27.535 307.186,27.535 312.852,27.535 L312.852,27.535 Z" id="Fill-20" fill="#F3B229"></path>
                <polygon id="Fill-21" fill="#F3B229" points="24.623 209.223 315.772 209.223 315.772 203.383 24.623 203.383"></polygon>
                <polygon id="Fill-22" fill="#F3B229" points="24.623 99.773 168.584 99.773 168.584 93.933 24.623 93.933"></polygon>
                <polygon id="Fill-23" fill="#F3B229" points="166.742 206.303 172.582 206.303 172.582 25.154 166.742 25.154"></polygon>
            </g>
        </g>
    </g>
</svg>